<?xml version="1.0" encoding="UTF-8" standalone="no"?>
<svg width="32px" height="32px" viewBox="0 0 32 32" version="1.1" xmlns="http://www.w3.org/2000/svg" xmlns:xlink="http://www.w3.org/1999/xlink" xmlns:sketch="http://www.bohemiancoding.com/sketch/ns">
    <!-- Generator: Sketch 3.5.2 (25235) - http://www.bohemiancoding.com/sketch -->
    <title>facebook_L Copy</title>
    <desc>Created with Sketch.</desc>
    <defs></defs>
    <g id="Page-1" stroke="none" stroke-width="1" fill="none" fill-rule="evenodd" sketch:type="MSPage">
        <g id="Mobile" sketch:type="MSArtboardGroup" transform="translate(-144.000000, -405.000000)" fill-opacity="0.5" fill="#000000">
            <path d="M160,437 C168.836556,437 176,429.836556 176,421 C176,412.163444 168.836556,405 160,405 C151.163444,405 144,412.163444 144,421 C144,429.836556 151.163444,437 160,437 Z M160,435.72 C168.129632,435.72 174.72,429.129632 174.72,421 C174.72,412.870368 168.129632,406.28 160,406.28 C151.870368,406.28 145.28,412.870368 145.28,421 C145.28,429.129632 151.870368,435.72 160,435.72 Z M161.92512,410.67168 C161.25312,410.67168 160.608,410.75232 159.85536,411.048 C158.3232,411.66624 157.54368,413.11776 157.54368,415.37568 L157.54368,417.57984 L155.39328,417.57984 L155.39328,421.2624 L157.54368,421.2624 L157.54368,431.88 L161.92512,431.88 L161.92512,421.2624 L164.9088,421.2624 L165.312,417.57984 L161.92512,417.57984 L161.92512,415.91328 C161.92512,415.40256 161.97888,415.02624 162.11328,414.8112 C162.30144,414.48864 162.67776,414.32736 163.26912,414.32736 L165.25824,414.32736 L165.25824,410.67168 L161.92512,410.67168 Z" id="facebook_L-Copy" sketch:type="MSShapeGroup"></path>
        </g>
    </g>
</svg>