<?xml version="1.0" encoding="UTF-8" standalone="no"?>
<svg width="32px" height="32px" viewBox="0 0 32 32" version="1.1" xmlns="http://www.w3.org/2000/svg" xmlns:xlink="http://www.w3.org/1999/xlink" xmlns:sketch="http://www.bohemiancoding.com/sketch/ns">
    <!-- Generator: Sketch 3.5.2 (25235) - http://www.bohemiancoding.com/sketch -->
    <title>pinterest_L</title>
    <desc>Created with Sketch.</desc>
    <defs></defs>
    <g id="Page-1" stroke="none" stroke-width="1" fill="none" fill-rule="evenodd" sketch:type="MSPage">
        <g id="Mobile" sketch:type="MSArtboardGroup" transform="translate(-224.000000, -405.000000)" fill-opacity="0.5" fill="#000000">
            <path d="M240,437 C248.836556,437 256,429.836556 256,421 C256,412.163444 248.836556,405 240,405 C231.163444,405 224,412.163444 224,421 C224,429.836556 231.163444,437 240,437 Z M240,435.72 C248.129632,435.72 254.72,429.129632 254.72,421 C254.72,412.870368 248.129632,406.28 240,406.28 C231.870368,406.28 225.28,412.870368 225.28,421 C225.28,429.129632 231.870368,435.72 240,435.72 Z M232.32,418.262046 C232.32,420.328472 233.100971,422.165912 234.774955,422.850644 C235.04896,422.962914 235.296341,422.855091 235.375104,422.549406 C235.430571,422.339318 235.561472,421.806872 235.620267,421.585667 C235.700139,421.285541 235.669077,421.178829 235.447211,420.917608 C234.964651,420.346257 234.656256,419.608168 234.656256,418.561061 C234.656256,415.526451 236.921515,412.809752 240.557909,412.809752 C243.776085,412.809752 245.544363,414.780581 245.544363,417.411688 C245.544363,420.874257 244.015701,423.797709 241.744896,423.797709 C240.49024,423.797709 239.551744,422.758383 239.853483,421.483402 C240.212907,419.962762 240.910677,418.32096 240.910677,417.221608 C240.910677,416.240084 240.383744,415.418627 239.294379,415.418627 C238.013099,415.418627 236.982528,416.749187 236.982528,418.527714 C236.982528,419.661524 237.365248,420.428514 237.365248,420.428514 C237.365248,420.428514 236.052907,425.997524 235.823275,426.973491 C235.36512,428.915419 235.754496,431.296421 235.787776,431.536522 C235.807744,431.678804 235.989675,431.712152 236.072875,431.60544 C236.190464,431.450931 237.716907,429.562358 238.236075,427.676008 C238.383616,427.141339 239.080277,424.373507 239.080277,424.373507 C239.496277,425.169398 240.712107,425.871916 242.006699,425.871916 C245.860523,425.871916 248.474112,422.351545 248.474112,417.639562 C248.474112,414.076952 245.463381,410.76 240.886272,410.76 C235.192064,410.76 232.32,414.851722 232.32,418.262046 Z" id="pinterest_L" sketch:type="MSShapeGroup"></path>
        </g>
    </g>
</svg>