<?xml version="1.0" encoding="UTF-8" standalone="no"?>
<svg width="32px" height="32px" viewBox="0 0 32 32" version="1.1" xmlns="http://www.w3.org/2000/svg" xmlns:xlink="http://www.w3.org/1999/xlink" xmlns:sketch="http://www.bohemiancoding.com/sketch/ns">
    <!-- Generator: Sketch 3.5.2 (25235) - http://www.bohemiancoding.com/sketch -->
    <title>twitter_L Copy</title>
    <desc>Created with Sketch.</desc>
    <defs></defs>
    <g id="Page-1" stroke="none" stroke-width="1" fill="none" fill-rule="evenodd" sketch:type="MSPage">
        <g id="Mobile" sketch:type="MSArtboardGroup" transform="translate(-184.000000, -405.000000)" fill-opacity="0.5" fill="#000000">
            <path d="M200,437 C208.836556,437 216,429.836556 216,421 C216,412.163444 208.836556,405 200,405 C191.163444,405 184,412.163444 184,421 C184,429.836556 191.163444,437 200,437 Z M200,435.72 C208.129632,435.72 214.72,429.129632 214.72,421 C214.72,412.870368 208.129632,406.28 200,406.28 C191.870368,406.28 185.28,412.870368 185.28,421 C185.28,429.129632 191.870368,435.72 200,435.72 Z M195.296718,416.90202 C198.372984,418.455087 200.972784,418.365487 200.972784,418.365487 C200.972784,418.365487 199.987184,414.93082 203.033584,413.407621 C206.079983,411.884421 208.176344,414.452487 208.176344,414.452487 C208.176344,414.452487 208.707649,414.306638 209.103523,414.16079 C209.499397,414.014941 210.072374,413.754497 210.072374,413.754497 L209.133638,415.430087 L210.579148,415.276863 C210.579148,415.276863 210.400985,415.537358 209.822468,416.067937 C209.243951,416.598517 209.005516,416.87262 209.005516,416.87262 C209.005516,416.87262 209.212178,421.006924 207.034316,424.189952 C204.856454,427.37298 202.04253,429.283351 197.954851,429.685418 C193.867173,430.087485 191.204986,428.431018 191.204986,428.431018 C191.204986,428.431018 192.99273,428.328991 194.131919,427.893418 C195.271108,427.457846 196.909518,426.310485 196.909518,426.310485 C196.909518,426.310485 194.579918,425.593685 193.743652,424.787285 C192.907385,423.980886 192.698319,423.503019 192.698319,423.503019 L194.998052,423.473152 C194.998052,423.473152 192.578852,422.188886 191.891919,421.173419 C191.204986,420.157953 191.115386,419.172353 191.115386,419.172353 L192.883441,419.886327 C192.883441,419.886327 191.414052,417.888087 191.204986,416.33502 C190.995919,414.781954 191.473786,413.945687 191.473786,413.945687 C191.473786,413.945687 192.220452,415.348954 195.296718,416.90202 Z" id="twitter_L-Copy" sketch:type="MSShapeGroup"></path>
        </g>
    </g>
</svg>